# xmcd
#
# Track frame offsets:
#	150
#	17925
#	34425
#	46877
#	58577
#	73202
#	87605
#	100280
#	115205
#	131105
#
# Disc length: 1972 seconds
#
# Revision: 0
# Processed by: cddbd v1.4PL0 Copyright (c) Steve Scherf et al.
# Submitted via: EasyCDDAExtractor 4.6.0.1
#
DISCID=9607b20a
DTITLE=La Banda El Recodo - Lo Mejor De Mi Vida CD2
DYEAR=2001
DGENRE=Latin
TTITLE0=Lo Mejor De Mi Vida
TTITLE1=Le Pido A Dios
TTITLE2=Dale Mas Duro
TTITLE3=Que Me Perdone Dios
TTITLE4=Gracias Por Tu Amor
TTITLE5=Hola Mi Amor
TTITLE6=La Penas Con Pan Son Buenas
TTITLE7=Recordandote
TTITLE8=Ya Te olvide
TTITLE9=Cuando Llegaste Tu
EXTD=
EXTT0=
EXTT1=
EXTT2=
EXTT3=
EXTT4=
EXTT5=
EXTT6=
EXTT7=
EXTT8=
EXTT9=
PLAYORDER=
